<svg xmlns="http://www.w3.org/2000/svg" fill="none" viewBox="0 0 30 30" id="Calendar-Mark--Streamline-Flex-Remix" height="30" width="30">
  <desc>
    Calendar Mark Streamline Icon: https://streamlinehq.com
  </desc>
  <g id="calendar-mark--calendar-date-day-month-mark">
    <path id="Union" fill="#ffffff" fill-rule="evenodd" d="M10.5678 1.875c0 -0.7396671428571429 -0.5996142857142858 -1.3392857142857142 -1.3392857142857142 -1.3392857142857142s-1.3392857142857142 0.5996185714285714 -1.3392857142857142 1.3392857142857142v1.8955285714285715C4.2504 4.073678571428571 1.3223292857142859 6.888385714285715 0.9077271428571428 10.44915c-0.4960178571428571 4.26 -0.4960157142857143 7.9040357142857145 0 12.163992857142857 0.42546214285714284 3.654 3.497772857142857 6.522428571428572 7.2688371428571426 6.697285714285714 2.1813000000000002 0.10114285714285713 4.408435714285714 0.15364285714285714 6.8231142857142855 0.15364285714285714 2.414678571428571 0 4.641792857142858 -0.0525 6.823178571428571 -0.15364285714285714 3.771 -0.17485714285714288 6.843214285714285 -3.043285714285714 7.268785714285714 -6.697285714285714 0.4960714285714286 -4.259957142857143 0.4960714285714286 -7.903992857142857 0 -12.163992857142857 -0.41464285714285715 -3.5605499999999997 -3.3424285714285715 -6.375128571428571 -6.980785714285713 -6.678557142857143V1.875c0 -0.7396671428571429 -0.5997857142857143 -1.3392857142857142 -1.3393714285714287 -1.3392857142857142 -0.7396714285714285 0 -1.3392857142857142 0.5996185714285714 -1.3392857142857142 1.3392857142857142v1.7864785714285714c-1.4256428571428572 -0.041807142857142855 -2.8908642857142857 -0.06319285714285713 -4.4325214285714285 -0.06319285714285713 -1.5414428571428571 0 -3.0064285714285712 0.021385714285714282 -4.431878571428571 0.06317142857142857V1.875Zm8.8644 5.774935714285714v-1.3087071428571428c-1.4235857142857142 -0.042557142857142856 -2.8880785714285713 -0.06437142857142857 -4.4325214285714285 -0.06437142857142857 -1.544207142857143 0 -3.008507142857143 0.021814285714285713 -4.431878571428571 0.06435v1.3087285714285712c0 0.7396714285714285 -0.5996142857142858 1.3392857142857142 -1.3392857142857142 1.3392857142857142s-1.3392857142857142 -0.5996142857142858 -1.3392857142857142 -1.3392857142857142v-1.1866285714285714c-2.283985714285714 0.2916 -4.064571428571429 2.094192857142857 -4.3209 4.295635714285714 -0.47205 4.054157142857143 -0.47205 7.490292857142857 0 11.544342857142857 0.2715214285714285 2.3320714285714286 2.2534285714285716 4.2165 4.732285714285714 4.331357142857143 2.1385714285714283 0.09921428571428571 4.3243285714285715 0.15085714285714286 6.699064285714286 0.15085714285714286 2.374714285714286 0 4.560471428571428 -0.05164285714285714 6.699107142857143 -0.15085714285714286 2.478857142857143 -0.11485714285714285 4.460785714285715 -1.9992857142857143 4.732285714285714 -4.331357142857143 0.47207142857142853 -4.05405 0.47207142857142853 -7.4901857142857144 0 -11.544342857142857 -0.2562857142857143 -2.201228571428571 -2.0365714285714285 -4.003692857142857 -4.320214285714285 -4.2955499999999995v1.1865428571428571c0 0.7396714285714285 -0.5997857142857143 1.3392857142857142 -1.3393714285714287 1.3392857142857142 -0.7396714285714285 0 -1.3392857142857142 -0.5996142857142858 -1.3392857142857142 -1.3392857142857142ZM11.256278571428572 14.537014285714285c0 1.3714285714285714 -0.7714285714285714 2.142857142857143 -2.142857142857143 2.142857142857143s-2.142857142857143 -0.7714285714285714 -2.142857142857143 -2.142857142857143 0.7714285714285714 -2.142857142857143 2.142857142857143 -2.142857142857143 2.142857142857143 0.7714285714285714 2.142857142857143 2.142857142857143Zm3.7437214285714284 2.142857142857143c1.3714285714285714 0 2.142857142857143 -0.7714285714285714 2.142857142857143 -2.142857142857143s-0.7714285714285714 -2.142857142857143 -2.142857142857143 -2.142857142857143 -2.142857142857143 0.7714285714285714 -2.142857142857143 2.142857142857143 0.7714285714285714 2.142857142857143 2.142857142857143 2.142857142857143Zm8.0295 -2.142857142857143c0 1.3714285714285714 -0.7714285714285714 2.142857142857143 -2.1429214285714284 2.142857142857143 -1.3714285714285714 0 -2.142857142857143 -0.7714285714285714 -2.142857142857143 -2.142857142857143s0.7714285714285714 -2.142857142857143 2.142857142857143 -2.142857142857143c1.371492857142857 0 2.1429214285714284 0.7714285714285714 2.1429214285714284 2.142857142857143ZM9.113421428571428 23.10835714285714c1.3714285714285714 0 2.142857142857143 -0.7714285714285714 2.142857142857143 -2.1427714285714283 0 -1.3714285714285714 -0.7714285714285714 -2.142857142857143 -2.142857142857143 -2.142857142857143s-2.142857142857143 0.7714285714285714 -2.142857142857143 2.142857142857143c0 1.371342857142857 0.7714285714285714 2.1427714285714283 2.142857142857143 2.1427714285714283ZM17.142857142857142 20.965585714285712c0 1.371342857142857 -0.7714285714285714 2.1427714285714283 -2.142857142857143 2.1427714285714283s-2.142857142857143 -0.7714285714285714 -2.142857142857143 -2.1427714285714283c0 -1.3714285714285714 0.7714285714285714 -2.142857142857143 2.142857142857143 -2.142857142857143s2.142857142857143 0.7714285714285714 2.142857142857143 2.142857142857143Z" clip-rule="evenodd" stroke-width="2.1429"></path>
  </g>
</svg>