<svg viewBox="0 0 50 50" fill="#d3d3d3" xmlns="http://www.w3.org/2000/svg" id="Vidicon-2-Fill--Streamline-Remix-Fill" height="50" width="50">
  <desc>
    Vidicon 2 Fill Streamline Icon: https://streamlinehq.com
  </desc>
  <path d="M27.083333333333336 12.5V8.333333333333334H10.416666666666668V4.166666666666667h20.833333333333336v8.333333333333334h2.0833333333333335c1.150625 0 2.0833333333333335 0.9327500000000001 2.0833333333333335 2.0833333333333335v4.583333333333334l10.861041666666669 -7.602687500000001c0.47125000000000006 -0.3299166666666667 1.1208333333333336 -0.2152916666666667 1.4506250000000003 0.25602083333333336 0.12250000000000001 0.17508333333333334 0.18833333333333332 0.38362500000000005 0.18833333333333332 0.5973541666666666V37.582708333333336c0 0.5752083333333334 -0.46645833333333336 1.0416666666666667 -1.0416666666666667 1.0416666666666667 -0.21375 0 -0.4222916666666667 -0.06583333333333334 -0.5972916666666668 -0.18833333333333332L35.41666666666667 30.833333333333336V39.583333333333336c0 1.150625 -0.9327083333333334 2.0833333333333335 -2.0833333333333335 2.0833333333333335H4.166666666666667c-1.1505833333333333 0 -2.0833333333333335 -0.9327083333333334 -2.0833333333333335 -2.0833333333333335V14.583333333333334c0 -1.1505833333333333 0.9327500000000001 -2.0833333333333335 2.0833333333333335 -2.0833333333333335h22.916666666666668Zm-16.666666666666668 8.333333333333334v4.166666666666667h4.166666666666667v-4.166666666666667H10.416666666666668Z" stroke-width="2.0833"></path>
</svg>