<svg viewBox="-0.94 -0.94 30 30" fill="none" xmlns="http://www.w3.org/2000/svg" id="Www--Streamline-Iconoir" height="30" width="30">
  <desc>
    Www Streamline Icon: https://streamlinehq.com
  </desc>
  <path d="M3.91089445 19.918333333333333c2.02587025 3.5021116666666665 5.81236885 5.858333333333333 10.149222716666666 5.858333333333333 4.336807 0 8.123282166666666 -2.356221666666667 10.149093833333334 -5.858333333333333" stroke="#ffffff" stroke-linecap="round" stroke-linejoin="round" stroke-width="1.88"></path>
  <path d="M3.91089445 8.201666666666666c2.02587025 -3.502123383333333 5.81236885 -5.858333333333333 10.149222716666666 -5.858333333333333 4.336807 0 8.123282166666666 2.35620995 10.149093833333334 5.858333333333333" stroke="#ffffff" stroke-linecap="round" stroke-linejoin="round" stroke-width="1.88"></path>
  <path d="M15.231666666666666 25.718786333333334s1.6495894999999998 -2.17227 2.6886235000000003 -5.800570166666667" stroke="#ffffff" stroke-linecap="round" stroke-linejoin="round" stroke-width="1.88"></path>
  <path d="M15.231666666666666 2.401119933333333S16.881256166666667 4.573343066666666 17.920290166666668 8.201666666666666" stroke="#ffffff" stroke-linecap="round" stroke-linejoin="round" stroke-width="1.88"></path>
  <path d="M12.888333333333334 25.718786333333334s-1.6495309166666667 -2.17227 -2.6886000666666665 -5.800570166666667" stroke="#ffffff" stroke-linecap="round" stroke-linejoin="round" stroke-width="1.88"></path>
  <path d="M12.888333333333334 2.401119933333333S11.238802416666667 4.573343066666666 10.199733266666668 8.201666666666666" stroke="#ffffff" stroke-linecap="round" stroke-linejoin="round" stroke-width="1.88"></path>
  <path d="m10.545 11.716666666666667 1.7574999999999998 5.858333333333333 1.7574999999999998 -5.858333333333333 1.7574999999999998 5.858333333333333 1.7574999999999998 -5.858333333333333" stroke="#ffffff" stroke-linecap="round" stroke-linejoin="round" stroke-width="1.88"></path>
  <path d="m1.1716666666666666 11.716666666666667 1.7574999999999998 5.858333333333333L4.6866666666666665 11.716666666666667l1.7574999999999998 5.858333333333333L8.201666666666666 11.716666666666667" stroke="#ffffff" stroke-linecap="round" stroke-linejoin="round" stroke-width="1.88"></path>
  <path d="m19.918333333333333 11.716666666666667 1.7574999999999998 5.858333333333333 1.7574999999999998 -5.858333333333333 1.7574999999999998 5.858333333333333 1.7574999999999998 -5.858333333333333" stroke="#ffffff" stroke-linecap="round" stroke-linejoin="round" stroke-width="1.88"></path>
</svg>