<svg xmlns="http://www.w3.org/2000/svg" fill="none" viewBox="0 0 30 30" id="Messages-Bubble-Image--Streamline-Freehand" height="30" width="30">
  <desc>
    Messages Bubble Image Streamline Icon: https://streamlinehq.com
  </desc>
  <path fill="#ffffff" d="M29.953625000000002 12.0124125c-0.11249999999999999 -2.5006250000000003 -2.013 -6.0264875 -5.23875 -8.602125000000001C22.01925 1.2330062499999999 18.665 0.034118625 15.2 0.0094411875 11.501412499999999 -0.064270125 7.899075 1.1912225 5.0475 3.5478125 2.198 5.9362125 0.40172624999999995 9.349125 0.0462585 13.050125 -0.1787975 16.876125 0.42135125 19.114125 1.7591875000000001 20.652c1.337825 1.5378749999999999 3.6758999999999995 2.5006250000000003 6.8516875 3.5633749999999997 0.112525 0 0.1500375 0.18762500000000001 0.21255 0.375125 0.1423375 0.6381249999999999 0.1423375 1.2998750000000001 0 1.938 -0.1438 0.949625 -0.531525 1.8457499999999998 -1.125275 2.600625 -0.0617875 0.08125 -0.09918750000000001 0.178375 -0.1078375 0.28 -0.008637500000000001 0.10175000000000001 0.011850000000000001 0.20375000000000001 0.05905 0.29425 0.0472125 0.09050000000000001 0.1191875 0.16562500000000002 0.2075375 0.21675 0.0883375 0.051125 0.18939999999999999 0.076 0.29136249999999997 0.07175 0.3678375 0.008375 0.73575 -0.0125 1.100275 -0.0625 1.5706375000000001 -0.15825 3.088775 -0.652875 4.4510875 -1.4503750000000002 0.465875 -0.340875 0.886 -0.74 1.250375 -1.18775 0.8626250000000001 -1.050375 1.600375 -2.3756250000000003 2.0255 -2.92575 0.512625 0 1.750375 0 3.05075 -0.162625 0.741 -0.076125 1.4761250000000001 -0.201375 2.2005 -0.375 2.50875 -0.675875 4.6755 -2.263 6.0765 -4.451125 1.2955 -2.22625 1.872 -4.798125 1.650375 -7.3643374999999995Zm-2.5006250000000003 6.8517125c-1.229125 2.015875 -3.17 3.49725 -5.43875 4.151 -0.681875 0.17812499999999998 -1.3755000000000002 0.30762500000000004 -2.075625 0.387625 -1.650375 0.2 -3.00075 -0.08750000000000001 -3.4132499999999997 0.21250000000000002 -0.412625 0.30012500000000003 -1.150375 1.663 -1.9505 2.70075 -0.382625 0.5315000000000001 -0.8418749999999999 1.003375 -1.362875 1.4002500000000002 -1.2460499999999999 0.7106250000000001 -2.6335249999999997 1.1375 -4.0634875 1.250375 0.4731125 -0.91125 0.7459499999999999 -1.913 0.8001999999999999 -2.93825 0.0746375 -0.6711250000000001 -0.002275 -1.3505 -0.2250625 -1.988 -0.061225 -0.1955 -0.1646125 -0.37525000000000003 -0.302875 -0.5265 -0.1382625 -0.15125 -0.3080375 -0.27025 -0.497325 -0.34875 -2.9132124999999998 -1.0627499999999999 -5.0012375 -1.825375 -6.2515374999999995 -3.32575 -1.2503125000000002 -1.500375 -1.56289125 -3.350875 -1.2503125000000002 -6.701625 0.3693375 -3.3270125 2.030675 -6.375775 4.6261375 -8.4896625C8.6545125 2.5174000000000003 11.9338875 1.3829125 15.3 1.4473c3.1472499999999997 -0.0023374999999999997 6.20375 1.05465 8.677125 3.0007374999999996 2.93825 2.2755625 4.76375 5.376325 4.91375 7.6268875000000005 0.21175 2.3652 -0.316875 4.7377 -1.512875 6.789199999999999h0.075Z" stroke-width="1.25"></path>
  <path fill="#ffffff" d="M24.777375 15.413250000000001c-0.2375 -0.7627499999999999 -0.487625 -1.525375 -0.7251249999999999 -2.138 -0.6945 -1.7091 -1.5310000000000001 -3.3569375 -2.5006250000000003 -4.92625 -0.14925 -0.2946875 -0.35525 -0.5569000000000001 -0.606375 -0.7715 -0.251125 -0.2146125 -0.54225 -0.37733750000000005 -0.8565 -0.4788 -0.26187499999999997 0.023700000000000002 -0.516 0.1015125 -0.746375 0.2284875 -0.23025 0.126975 -0.431625 0.3003625 -0.5915 0.5091875 -0.8502500000000001 1.0186875 -1.595875 2.1203374999999998 -2.2255 3.2883125l-0.82525 1.8504375c-0.11249999999999999 -0.0625 -1.8379999999999999 -0.475125 -2.213 -0.600125 -0.21625 -0.07718749999999999 -0.44737499999999997 -0.102875 -0.67525 -0.075025 -0.46047499999999997 0.27215 -0.8502875 0.64915 -1.1377375 1.100275 -0.8877250000000001 1.18775 -2.125525 3.2632499999999998 -2.6881625 4.201l-2.2505625 0.150125c-0.099475 0 -0.1948875 0.03950000000000001 -0.265225 0.109875 -0.07035 0.07025 -0.1098625 0.16575 -0.1098625 0.265125 0 0.0995 0.0395125 0.19487500000000002 0.1098625 0.26525 0.0703375 0.07037500000000001 0.16575 0.109875 0.265225 0.109875 0.58765 0 3.2508 0.1875 6.3890875000000005 0.22512500000000002h2.725625l2.72575 0.0375c3.01325 -0.137625 5.601374999999999 -0.30012500000000003 6.3515 -0.312625 0.055874999999999994 0.001625 0.1115 -0.007625000000000001 0.16375 -0.027499999999999997 0.052125000000000005 -0.019875 0.1 -0.04975 0.140625 -0.088125 0.040625 -0.03825 0.07325 -0.08425 0.09612499999999999 -0.13525 0.022875 -0.050875000000000004 0.035500000000000004 -0.105875 0.037125 -0.16174999999999998 -0.13599999999999998 -0.8875 -0.33237500000000003 -1.7647499999999998 -0.5876250000000001 -2.625625Zm-6.2515 1.938h-2.70075c-0.91275 0 -1.837875 0 -2.725625 0.075 -1.087775 0 -2.1130375 0.11249999999999999 -3.0257625 0.17500000000000002 0.475125 -0.7126250000000001 1.125275 -1.675375 1.7629375 -2.5006250000000003 0.3750875 -0.512625 0.7502 -0.97525 1.0377 -1.2502499999999999 0.081375 -0.08337499999999999 0.174 -0.15487499999999998 0.275125 -0.212625 0.6940000000000001 0.31074999999999997 1.408375 0.574 2.138 0.78775 0.362875 0.09862499999999999 0.7489999999999999 0.063125 1.08775 -0.1 0.22349999999999998 -0.16075 0.40725 -0.37025 0.537625 -0.612625 0.337625 -0.550125 0.7377499999999999 -1.525425 0.8752500000000001 -1.7754875 0.1375 -0.2500625 0.5876250000000001 -1.00025 0.96275 -1.5753875000000002 0.32887500000000003 -0.5645125 0.7053750000000001 -1.099925 1.12525 -1.6003999999999998l0.100125 -0.125025c0.10874999999999999 0.067375 0.2095 0.14708749999999998 0.3 0.2375625 0.45725000000000005 0.5928875 0.874875 1.2152125 1.250375 1.8629499999999999 0.737625 1.2503125000000002 1.4002500000000002 2.5006625 1.575375 2.9006625 0.2625 0.57525 0.562625 1.250375 0.8376250000000001 2.013 0.275125 0.7627499999999999 0.412625 1.250375 0.562625 1.8255 -1.08775 0.0375 -3.30075 -0.08750000000000001 -5.938875 -0.125h-0.0375Z" stroke-width="1.25"></path>
  <path fill="#ffffff" d="M9.098524999999999 10.924637500000001c0.725725 -0.12257499999999999 1.3899875000000002 -0.48329999999999995 1.887975 -1.02525 0.24226250000000002 -0.282325 0.41847500000000004 -0.6151375 0.5158125 -0.9741875 0.0973375 -0.3590625 0.11332500000000001 -0.7353125 0.046825 -1.1013249999999999 -0.1660625 -0.6151 -0.5197875 -1.1631125 -1.011925 -1.5677374999999998 -0.4921375 -0.4046375 -1.0981875 -0.6457499999999999 -1.7337875 -0.689775 -0.6356 -0.044025 -1.2691 0.1112375 -1.812325 0.44415000000000004 -0.5432125 0.332925 -0.9691125 0.8269375 -1.2184 1.4132624999999999 -0.147475 0.2867125 -0.2340625 0.6008375 -0.254325 0.9226375 -0.020249999999999997 0.3217875 0.026275 0.6442875000000001 0.13665 0.9472375 0.110375 0.30295 0.282225 0.5797875 0.5047375 0.8131375000000001 0.22249999999999998 0.2333375 0.490875 0.41813749999999994 0.7882374999999999 0.5427875 0.6708749999999999 0.31282499999999996 1.4225124999999998 0.4089625 2.150525 0.2750625ZM7.1980625 7.511299999999999c0.16945000000000002 -0.335175 0.44082499999999997 -0.6079749999999999 0.7750999999999999 -0.7791874999999999 0.334275 -0.17121250000000002 0.7142375 -0.23199999999999998 1.0852375 -0.1736375 0.3710125 0.058362500000000005 0.7139624999999999 0.23286250000000003 0.979525 0.4984375 0.265575 0.2655625 0.44008749999999996 0.6085 0.49846250000000003 0.9795125 0.014512500000000001 0.2045 -0.0173 0.40965 -0.09307499999999999 0.60015 -0.0757625 0.1905 -0.1935375 0.36144999999999994 -0.3445375 0.500125 -0.354525 0.2909875 -0.7923875 0.46175 -1.2503125000000002 0.4876125 -0.4261375 0.0657625 -0.8622125 0.00034999999999999994 -1.2503 -0.1875375 -0.16965000000000002 -0.0842375 -0.31793750000000004 -0.2059125 -0.43367500000000003 -0.35585 -0.11573750000000001 -0.149925 -0.1959 -0.3241875 -0.23442500000000002 -0.5096375 -0.0385375 -0.1854375 -0.0344375 -0.37721249999999995 0.0119875 -0.5608375 0.046425 -0.183625 0.1339625 -0.3543125 0.2560125 -0.49915Z" stroke-width="1.25"></path>
</svg>