<svg xmlns="http://www.w3.org/2000/svg" fill="none" viewBox="-1.565 -1.565 50 50" id="Chat-Round-Line--Streamline-Solar" height="50" width="50">
  <desc>
    Chat Round Line Streamline Icon: https://streamlinehq.com
  </desc>
  <g id="Line Duotone/Messages Conversation/Chat Round Line">
    <path id="Vector" stroke="#ffffcf" stroke-linecap="round" d="M15.623333333333335 20.505625000000002h15.623333333333335" stroke-width="3.13"></path>
    <path id="Vector_2" stroke="#ffffcf" stroke-linecap="round" d="M15.623333333333335 27.340833333333336h10.741041666666668" stroke-width="3.13"></path>
    <path id="Vector_3" stroke="#ffffff" d="M23.435000000000002 42.96416666666667c10.785568166666668 0 19.52916666666667 -8.743598500000001 19.52916666666667 -19.52916666666667 0 -10.785665812500001 -8.743598500000001 -19.52916666666667 -19.52916666666667 -19.52916666666667C12.649334187500001 3.9058333333333337 3.9058333333333337 12.649334187500001 3.9058333333333337 23.435000000000002c0 3.1240807916666666 0.7335545583333334 6.0766955000000005 2.0377904250000003 8.695361458333334 0.34660365000000004 0.6958242083333334 0.46196243750000004 1.4912471666666667 0.2610268416666667 2.242143625l-1.1631766958333334 4.347387791666668c-0.5049461333333334 1.8871033750000004 1.221549375 3.613481708333334 3.108730866666667 3.1086527500000005l4.347270616666667 -1.163157166666667c0.7509745750000001 -0.20095512500000004 1.5463584750000001 -0.08553775000000001 2.2422217416666665 0.2609096666666667C17.358245912500003 42.230651166666675 20.310919208333335 42.96416666666667 23.435000000000002 42.96416666666667Z" stroke-width="3.13"></path>
  </g>
</svg>