<svg xmlns="http://www.w3.org/2000/svg" fill="none" viewBox="-1.095 -1.095 35 35" id="Chat-Round-Line--Streamline-Solar" height="35" width="35">
  <desc>
    Chat Round Line Streamline Icon: https://streamlinehq.com
  </desc>
  <g id="Line Duotone/Messages Conversation/Chat Round Line">
    <path id="Vector" stroke="#ffffcf" stroke-linecap="round" d="M10.936666666666666 14.354375h10.936666666666666" stroke-width="2.19"></path>
    <path id="Vector_2" stroke="#ffffcf" stroke-linecap="round" d="M10.936666666666666 19.139166666666664h7.518958333333333" stroke-width="2.19"></path>
    <path id="Vector_3" stroke="#ffffff" d="M16.404999999999998 30.075833333333332c7.550127833333333 0 13.670833333333333 -6.120705499999999 13.670833333333333 -13.670833333333333 0 -7.550196187499999 -6.120705499999999 -13.670833333333333 -13.670833333333333 -13.670833333333333C8.854803812499998 2.7341666666666664 2.7341666666666664 8.854803812499998 2.7341666666666664 16.404999999999998c0 2.186923208333333 0.5135038416666666 4.2538165 1.426496775 6.086938541666665 0.24262994999999998 0.4870917916666666 0.3233835625 1.0439048333333332 0.1827243583333333 1.5695483749999997l-0.8142485041666666 3.0432642083333334c-0.35347306666666667 1.321012625 0.8551106249999998 2.5295142916666666 2.176177933333333 2.17612325l3.043182183333333 -0.8142348333333332c0.525698225 -0.140672875 1.0824839249999998 -0.059878249999999994 1.5696030583333331 0.18264233333333332C12.1511424875 29.562356833333332 14.218076791666665 30.075833333333332 16.404999999999998 30.075833333333332Z" stroke-width="2.19"></path>
  </g>
</svg>