<svg xmlns="http://www.w3.org/2000/svg" viewBox="0 0 30 30" fill="#ffffff" id="Push-Pin--Streamline-Phosphor" height="30" width="30">
  <desc>
    Push Pin Streamline Icon: https://streamlinehq.com
  </desc>
  <path d="M29.03677734375 9.54005859375 20.45914453125 0.96384375c-0.88316015625 -0.8833593750000001 -2.31525 -0.8833593750000001 -3.19841015625 0l-7.579804687499999 7.603828125c-1.50662109375 -0.47206640624999996 -4.9467187500000005 -1.04164453125 -8.53662890625 1.857140625 -1.0484296875 0.843046875 -1.13340234375 2.40943359375 -0.18233203125 3.36094921875l6.8293125 6.82648828125 -6.0293554687499995 6.0251132812499995c-0.615796875 0.61580859375 -0.3340546875 1.66730859375 0.5071523437500001 1.89271875 0.39041015625000003 0.1046015625 0.80696484375 -0.0070078125 1.0927617187499998 -0.2928046875l6.0251132812499995 -6.0293554687499995 6.8250703125 6.8250703125c0.42376171874999996 0.42553125 0.999375 0.66502734375 1.5999140625 0.6656835937500001h0.15971484375c0.652265625 -0.0451875 1.25267578125 -0.37170703125 1.6451367187500001 -0.89465625 2.7758203125 -3.6888398437500003 2.508703125 -6.68797265625 1.8642070312499999 -8.48009765625l7.5571874999999995 -7.585453125000001c0.88297265625 -0.883546875 0.88233984375 -2.3156484375 -0.00140625 -3.19841015625Zm-1.5999140625 1.5999140625 -8.0942578125 8.12110546875c-0.34278515625 0.3440625 -0.427546875 0.8685937499999999 -0.21059765625 1.30311328125 1.3370390625 2.67547265625 -0.25440234375 5.4541171875000005 -1.3200703125 6.8717109375L2.5618828125 12.1844296875c1.707328125 -1.3766015624999999 3.3411679687499998 -1.7398359375 4.59057421875 -1.7398359375 0.79278515625 -0.010816406249999999 1.5790312499999999 0.144703125 2.30799609375 0.456515625 0.4361953125 0.21830859375 0.96322265625 0.13226953125000002 1.30734375 -0.21341015624999998l8.0928515625 -8.125359375 8.57621484375 8.57621484375Z" stroke-width="0.1172"></path>
</svg>