<svg xmlns="http://www.w3.org/2000/svg" fill="none" viewBox="-1.25 -1.25 40 40" id="Class-Lesson--Streamline-Plump-Neon" height="40" width="40">
  <desc>
    Class Lesson Streamline Icon: https://streamlinehq.com
  </desc>
  <g id="class-lesson--class-lesson-education-teacher">
    <path id="Vector" stroke="#ffffcf" stroke-linecap="round" stroke-linejoin="round" d="M17.96875 1.5633125C18.225703125 1.5627734375 18.48609375 1.5625 18.75 1.5625c6.674375 0 11.1271875 0.17671875 13.681953124999998 0.32428125 1.62125 0.0936484375 2.930859375 1.2429375 3.11828125 2.8560234375C35.747265625000004 6.438000000000001 35.9375 8.98484375 35.9375 12.5s-0.19023437499999998 6.06203125 -0.387265625 7.7571875c-0.18742187500000002 1.613125 -1.50046875 2.76265625 -3.12171875 2.85625 -2.350390625 0.135625 -6.305234375 0.2959375 -12.116015625 0.32078125" stroke-width="2.5"></path>
    <path id="Vector_2" stroke="#ffffff" stroke-linecap="round" stroke-linejoin="round" d="M15.625 7.03125A5.46875 5.46875 0 1 1 4.6875 7.03125a5.46875 5.46875 0 1 1 10.9375 0" stroke-width="2.5"></path>
    <path id="Vector_3" stroke="#ffffff" stroke-linecap="round" stroke-linejoin="round" d="M22.3240625 12.723593750000001c0.9289843750000001 0.048125 1.7355468749999998 0.6590625 1.83796875 1.5835937500000001 0.066328125 0.59859375 0.089375 1.347890625 -0.01375 2.19390625 -0.11046875 0.90671875 -0.8740625 1.55859375 -1.7763281249999998 1.700546875L16.40625 19.140625l-1.333515625 13.981640624999999c-0.134921875 1.414375 -1.207265625 2.562734375 -2.6224999999999996 2.6882031250000002 -0.8002343749999999 0.0709375 -1.7210937499999999 0.12703124999999998 -2.6321875 0.12703124999999998 -0.755625 0 -1.455078125 -0.038593749999999996 -2.0621953124999997 -0.09218749999999999 -1.3681796875 -0.120859375 -2.3613593749999997 -1.25734375 -2.4701015625 -2.626484375L4.6875 25.68625l-1.544859375 -0.53234375c-0.94553125 -0.325859375 -1.5865625 -1.216328125 -1.5397265625 -2.2153125 0.1068671875 -2.279375 0.40985937499999997 -4.49625 0.71765625 -6.2718750000000005 0.40202343749999997 -2.319296875 2.3876328124999997 -3.970234375 4.7399140625000005 -4.056171875 4.88834375 -0.178515625 10.361234375 -0.14085937499999998 15.263578124999999 0.11304687499999999Z" stroke-width="2.5"></path>
    <path id="Vector_4" stroke="#ffffff" stroke-linecap="round" stroke-linejoin="round" d="M10.15625 26.5625v9.375" stroke-width="2.5"></path>
  </g>
</svg>