<svg xmlns="http://www.w3.org/2000/svg" fill="none" viewBox="-0.75 -0.75 36 36" id="Share--Streamline-Ultimate" height="36" width="36">
  <desc>
    Share Streamline Icon: https://streamlinehq.com
  </desc>
  <path fill="#ffffcf" d="M27.1331 12.638083125c1.397825 0 2.73858125 -0.555320625 3.7270062499999996 -1.5437887499999998 0.988425 -0.9884825 1.54373125 -2.329138125 1.54373125 -3.727049375 0 -1.39791125 -0.55530625 -2.738566875 -1.54373125 -3.727035 -0.988425 -0.9884825 -2.32918125 -1.543803125 -3.7270062499999996 -1.543803125 -1.39796875 0 -2.73858125 0.555320625 -3.72715 1.543803125 -0.988425 0.9884681249999999 -1.54373125 2.32912375 -1.54373125 3.727035 0 1.39791125 0.55530625 2.738566875 1.54373125 3.727049375 0.98856875 0.9884681249999999 2.32918125 1.5437887499999998 3.72715 1.5437887499999998Z" stroke-width="1.5"></path>
  <path fill="#ffffcf" d="M7.3674175 22.520881250000002c1.39791125 0 2.738566875 -0.55530625 3.727049375 -1.54373125 0.9884681249999999 -0.98856875 1.5437887499999998 -2.32918125 1.5437887499999998 -3.72715 0 -1.397825 -0.555320625 -2.73858125 -1.5437887499999998 -3.7269775000000003 -0.9884825 -0.9884825 -2.329138125 -1.543803125 -3.727049375 -1.543803125 -1.39791125 0 -2.738566875 0.555320625 -3.727035 1.543803125C2.6519 14.51141875 2.09659375 15.852174999999999 2.09659375 17.25c0 1.39796875 0.55530625 2.73858125 1.5437887499999998 3.72715 0.9884681249999999 0.988425 2.32912375 1.54373125 3.727035 1.54373125Z" stroke-width="1.5"></path>
  <path fill="#ffffcf" d="M27.1331 32.403693749999995c1.397825 0 2.73858125 -0.55530625 3.7270062499999996 -1.54373125 0.988425 -0.98856875 1.54373125 -2.32918125 1.54373125 -3.72715 0 -1.397825 -0.55530625 -2.73858125 -1.54373125 -3.7270062499999996 -0.988425 -0.988425 -2.32918125 -1.54373125 -3.7270062499999996 -1.54373125 -1.39796875 0 -2.73858125 0.55530625 -3.72715 1.54373125 -0.988425 0.988425 -1.54373125 2.32918125 -1.54373125 3.7270062499999996 0 1.39796875 0.55530625 2.73858125 1.54373125 3.72715 0.98856875 0.988425 2.32918125 1.54373125 3.72715 1.54373125Z" stroke-width="1.5"></path>
  <path fill="#ffe4b4" d="M27.1331 4.731718125c1.1686874999999999 -0.000301875 2.30445625 0.38786625 3.2284812499999997 1.103468125 0.9240250000000001 0.7155875 1.5841250000000002 1.7180137500000001 1.8762249999999998 2.849656875 0.20024375 -0.7786506249999999 0.21964999999999998 -1.592764375 0.05678125 -2.38006875 -0.16272499999999998 -0.7873043750000001 -0.50355625 -1.5269268750000002 -0.9961874999999999 -2.162273125 -0.49263125 -0.63534625 -1.124125 -1.14956875 -1.8461812499999999 -1.503323125 -0.7219125 -0.353754375 -1.5152687500000002 -0.5376825 -2.31911875 -0.5376825 -0.8039937500000001 0 -1.59735 0.183928125 -2.3192625 0.5376825 -0.72205625 0.353754375 -1.35340625 0.867976875 -1.8460375 1.503323125 -0.49277499999999996 0.63534625 -0.8334625 1.37496875 -0.9963312500000001 2.162273125 -0.16286875 0.7873043750000001 -0.1434625 1.6014181250000001 0.05678125 2.38006875 0.29224375 -1.131643125 0.9521999999999999 -2.1340693749999997 1.8762249999999998 -2.849656875 0.92416875 -0.7156018749999999 2.05979375 -1.10377 3.228625 -1.103468125Z" stroke-width="1.5"></path>
  <path fill="#ffe4b4" d="M7.3674175 14.614487500000001c1.168759375 -0.0002875 2.30445625 0.38798124999999994 3.228524375 1.10356875 0.924068125 0.7155875 1.58409625 1.71795625 1.8762824999999999 2.84955625 0.20020062500000002 -0.77855 0.21962125 -1.59275 0.05678125 -2.38006875 -0.16284 -0.78731875 -0.50361375 -1.5269125000000001 -0.9962737500000001 -2.16223 -0.49264562500000003 -0.63534625 -1.124110625 -1.14956875 -1.8460662499999998 -1.503323125 -0.7219556249999999 -0.353754375 -1.5152687500000002 -0.5376825 -2.319248125 -0.5376825 -0.803965 0 -1.597278125 0.183928125 -2.31923375 0.5376825 -0.7219556249999999 0.353754375 -1.353420625 0.867976875 -1.846080625 1.503323125 -0.49264562500000003 0.6353175 -0.83343375 1.37491125 -0.9962737500000001 2.16223 -0.16284 0.78731875 -0.143405 1.60151875 0.056795625 2.38006875 0.29218625 -1.1316 0.9521999999999999 -2.1339687499999997 1.8762681249999997 -2.84955625 0.924068125 -0.7155875 2.059779375 -1.10385625 3.228524375 -1.10356875Z" stroke-width="1.5"></path>
  <path fill="#ffe4b4" d="M27.1331 24.4973c1.1686874999999999 -0.0002875 2.30445625 0.38798124999999994 3.2284812499999997 1.10356875 0.9240250000000001 0.7155875 1.5841250000000002 1.71795625 1.8762249999999998 2.84955625 0.20024375 -0.77855 0.21964999999999998 -1.59275 0.05678125 -2.38006875 -0.16272499999999998 -0.78731875 -0.50355625 -1.5269125000000001 -0.9961874999999999 -2.1622875 -0.49263125 -0.63523125 -1.124125 -1.14956875 -1.8461812499999999 -1.5033375 -0.7219125 -0.35362499999999997 -1.5152687500000002 -0.537625 -2.31911875 -0.537625 -0.8039937500000001 0 -1.59735 0.184 -2.3192625 0.537625 -0.72205625 0.35376875 -1.35340625 0.86810625 -1.8460375 1.5033375 -0.49277499999999996 0.635375 -0.8334625 1.37496875 -0.9963312500000001 2.1622875 -0.16286875 0.78731875 -0.1434625 1.60151875 0.05678125 2.38006875 0.29224375 -1.1316 0.9521999999999999 -2.1339687499999997 1.8762249999999998 -2.84955625 0.92416875 -0.7155875 2.05979375 -1.10385625 3.228625 -1.10356875Z" stroke-width="1.5"></path>
  <path stroke="#ffffff" stroke-linecap="round" stroke-linejoin="round" d="m12.076969375000001 19.604768749999998 10.345299375 5.173275" stroke-width="1.5"></path>
  <path stroke="#ffffff" stroke-linecap="round" stroke-linejoin="round" d="M22.42226875 9.720676874999999 12.076969375000001 14.893937500000002" stroke-width="1.5"></path>
  <path stroke="#ffffff" stroke-linecap="round" stroke-linejoin="round" d="M27.1331 12.638083125c1.397825 0 2.73858125 -0.555320625 3.7270062499999996 -1.5437887499999998 0.988425 -0.9884825 1.54373125 -2.329138125 1.54373125 -3.727049375 0 -1.39791125 -0.55530625 -2.738566875 -1.54373125 -3.727035 -0.988425 -0.9884825 -2.32918125 -1.543803125 -3.7270062499999996 -1.543803125 -1.39796875 0 -2.73858125 0.555320625 -3.72715 1.543803125 -0.988425 0.9884681249999999 -1.54373125 2.32912375 -1.54373125 3.727035 0 1.39791125 0.55530625 2.738566875 1.54373125 3.727049375 0.98856875 0.9884681249999999 2.32918125 1.5437887499999998 3.72715 1.5437887499999998Z" stroke-width="1.5"></path>
  <path stroke="#ffffff" stroke-linecap="round" stroke-linejoin="round" d="M7.3674175 22.520881250000002c1.39791125 0 2.738566875 -0.55530625 3.727049375 -1.54373125 0.9884681249999999 -0.98856875 1.5437887499999998 -2.32918125 1.5437887499999998 -3.72715 0 -1.397825 -0.555320625 -2.73858125 -1.5437887499999998 -3.7269775000000003 -0.9884825 -0.9884825 -2.329138125 -1.543803125 -3.727049375 -1.543803125 -1.39791125 0 -2.738566875 0.555320625 -3.727035 1.543803125C2.6519 14.51141875 2.09659375 15.852174999999999 2.09659375 17.25c0 1.39796875 0.55530625 2.73858125 1.5437887499999998 3.72715 0.9884681249999999 0.988425 2.32912375 1.54373125 3.727035 1.54373125Z" stroke-width="1.5"></path>
  <path stroke="#ffffff" stroke-linecap="round" stroke-linejoin="round" d="M27.1331 32.403693749999995c1.397825 0 2.73858125 -0.55530625 3.7270062499999996 -1.54373125 0.988425 -0.98856875 1.54373125 -2.32918125 1.54373125 -3.72715 0 -1.397825 -0.55530625 -2.73858125 -1.54373125 -3.7270062499999996 -0.988425 -0.988425 -2.32918125 -1.54373125 -3.7270062499999996 -1.54373125 -1.39796875 0 -2.73858125 0.55530625 -3.72715 1.54373125 -0.988425 0.988425 -1.54373125 2.32918125 -1.54373125 3.7270062499999996 0 1.39796875 0.55530625 2.73858125 1.54373125 3.72715 0.98856875 0.988425 2.32918125 1.54373125 3.72715 1.54373125Z" stroke-width="1.5"></path>
</svg>