<svg xmlns="http://www.w3.org/2000/svg" fill="none" viewBox="0 0 30 30" id="Shopping-Cart-2--Streamline-Flex-Remix" height="30" width="30">
  <desc>
    Shopping Cart 2 Streamline Icon: https://streamlinehq.com
  </desc>
  <g id="shopping-cart-2--shopping-cart-checkout">
    <path id="Union" fill="#ffffff" fill-rule="evenodd" d="M2.8535142857142857 2.6785714285714284c1.4731071428571427 0 2.719842857142857 1.08795 2.9193000000000002 2.5474928571428572l2.1397500000000003 15.658307142857144c0.13682142857142857 1.0012714285714286 0.5318357142857143 1.9109142857142856 1.1123142857142856 2.6656285714285715 -1.0136142857142856 0.6055714285714285 -1.6923642857142855 1.7138571428571427 -1.6923642857142855 2.9805 0 1.9161428571428571 1.5533785714285715 3.4695 3.469585714285714 3.4695s3.469585714285714 -1.5533571428571429 3.469585714285714 -3.4695c0 -0.26914285714285713 -0.030642857142857142 -0.5312142857142857 -0.08862857142857143 -0.7827857142857143h7.480585714285715c-0.05785714285714286 0.25157142857142856 -0.08850000000000001 0.5136428571428571 -0.08850000000000001 0.7827857142857143 0 1.9161428571428571 1.5533571428571429 3.4695 3.4695 3.4695s3.4695 -1.5533571428571429 3.4695 -3.4695c0 -1.9163571428571429 -1.5533571428571429 -3.4697142857142858 -3.4695 -3.4697142857142858 -0.08164285714285714 0 -0.16264285714285712 0.0027857142857142855 -0.243 0.008357142857142856H13.485771428571427c-1.4731071428571427 0 -2.7198642857142854 -1.0879285714285716 -2.9193000000000002 -2.5474499999999995l-0.24994285714285713 -1.8290142857142855c0.7095857142857143 0.46952142857142853 1.5280928571428571 0.7938 2.444292857142857 0.9204428571428571 1.3860857142857141 0.19159285714285715 3.109092857142857 0.3382071428571428 5.136257142857143 0.3382071428571428 2.8813714285714287 0 5.029992857142857 -0.29620714285714284 6.477921428571428 -0.6010714285714286 1.7935714285714284 -0.3777 3.2314285714285713 -1.6539214285714285 3.9023571428571424 -3.3924214285714283 0.7039285714285715 -1.82385 1.4404285714285714 -4.43115 1.7089285714285714 -7.484399999999999 0.1772142857142857 -2.0154 -1.3757142857142857 -3.7325785714285713 -3.351642857142857 -3.7325785714285713H8.408614285714286C7.9758 2.01633 5.624421428571428 0 2.8535142857142857 0H1.3392857142857142C0.5996207142857143 0 0 0.5996185714285714 0 1.3392857142857142s0.5996207142857143 1.3392857142857142 1.3392857142857142 1.3392857142857142h1.5142285714285715Zm6.182035714285714 4.740857142857143 0.8688 5.782864285714285c0.31493571428571426 2.0963357142857144 1.6348714285714283 3.5379214285714284 3.2232642857142855 3.7574785714285714 1.2713142857142858 0.17573571428571427 2.871642857142857 0.31298571428571426 4.769464285714286 0.31298571428571426 2.696357142857143 0 4.660135714285714 -0.27702857142857146 5.925921428571428 -0.5435785714285715 0.8545714285714285 -0.17995714285714284 1.5917142857142856 -0.79335 1.9553571428571428 -1.7358214285714286 0.6265714285714286 -1.6235357142857143 1.2962142857142858 -3.98505 1.539642857142857 -6.754521428571429 0.04307142857142857 -0.49019999999999997 -0.3199285714285714 -0.8194071428571429 -0.6833571428571429 -0.8194071428571429H9.03555Z" clip-rule="evenodd" stroke-width="2.1429"></path>
  </g>
</svg>