<svg xmlns="http://www.w3.org/2000/svg" fill="none" viewBox="-1.07 -1.07 30 30" id="Search-Category--Streamline-Flex-Neon" height="30" width="30">
  <desc>
    Search Category Streamline Icon: https://streamlinehq.com
  </desc>
  <g id="search-category">
    <path id="Vector" stroke="#ffffcf" stroke-linecap="round" stroke-linejoin="round" d="m26.867587 26.865 -3.55016 -3.5497620000000003" stroke-width="2.14"></path>
    <path id="Vector_2" stroke="#ffffcf" stroke-linecap="round" stroke-linejoin="round" d="M17.5302085 25.254293999999998c4.9502245 0 7.7346325 -2.784607 7.7346325 -7.7347718 0 -4.9502046 -2.784408 -7.7347121 -7.7346325 -7.7347121 -4.9502046 0 -7.7347121 2.7845075 -7.7347121 7.7347121 0 4.9501648 2.7845075 7.7347718 7.7347121 7.7347718Z" stroke-width="2.14"></path>
    <path id="Subtract" stroke="#ffffff" stroke-linecap="round" stroke-linejoin="round" d="M26.621026 9.0999516c0.096913 -0.9055694000000001 0.178702 -1.8352775000000001 0.178702 -2.7831344000000002 0 -0.947837 -0.081789 -1.8775451 -0.178702 -2.7831145 -0.13134 -1.2266957 -1.117783 -2.2133377000000003 -2.3440209999999997 -2.35000493C23.366380999999997 1.08218588 22.43128 0.995 21.477871 0.995c-0.9534090000000001 0 -1.8884105 0.08718588 -2.7991141 0.18869777000000001C17.4526383 1.320365 16.466016200000002 2.307007 16.334775699999998 3.5337027c-0.0751026 0.7019725 -0.14115070000000002 1.4184322 -0.1670605 2.146613M6.9297173 11.6271521c-0.204373 0.0074227 -0.40966139999999995 0.0115022 -0.6158055 0.0115022 -0.9533692 0 -1.8884304 -0.0871819 -2.7991539 -0.1886918C2.2886592 11.3132893 1.30202715 10.3266473 1.17078466 9.0999516 1.07389952 8.1943822 0.99208465 7.2646741 0.99208465 6.3168172c0 -0.947837 0.08181487 -1.8775451 0.17870001000000002 -2.7831145C1.30202715 2.307007 2.2886592 1.320365 3.5147579 1.18369777 4.425481400000001 1.08218588 5.3605426 0.995 6.3139118000000005 0.995c0.9533692 0 1.8884304 0.08718588 2.7991539 0.18869777000000001C10.339164400000001 1.320365 11.3257865 2.307007 11.4570469 3.5337027c0.0968732 0.9055694000000001 0.17868209999999998 1.8352775000000001 0.17868209999999998 2.7831145 0 0.182881 -0.0030446999999999996 0.3650854 -0.0086565 0.5465734M5.5578511 16.176093100000003c-0.6925598 0.030248 -1.3743935 0.09705230000000001 -2.0430932 0.1715977 -1.2260986999999999 0.13665329999999998 -2.21273075 1.1232953 -2.34397324 2.349991 -0.09688514 0.9055694000000001 -0.17870001000000002 1.8353372 -0.17870001000000002 2.7831742 0 0.947837 0.08181487 1.877565 0.17870001000000002 2.7830150000000002 0.13124249 1.2268350000000001 1.1178745399999999 2.213477 2.34397324 2.349991 0.9107235 0.101689 1.8457846999999998 0.188851 2.7991539 0.188851 0.9533692 0 1.8884304 -0.087162 2.7991539 -0.188851 0.10377850000000001 -0.011541999999999998 0.20584560000000002 -0.029054 0.3058431 -0.052536" stroke-width="2.14"></path>
  </g>
</svg>